<svg class="icon" viewBox="0 0 1024 1024" version="1.1" xmlns="http://www.w3.org/2000/svg" p-id="9385" height="128" width="128"><path d="M512 512m-446 0a446 446 0 1 0 892 0 446 446 0 1 0-892 0Z" fill="#FDC32C" p-id="9386"></path><path d="M512 512m-379.1 0a379.1 379.1 0 1 0 758.2 0 379.1 379.1 0 1 0-758.2 0Z" fill="#FFE47C" p-id="9387"></path><path d="M623.53 630.629c0.151 1.773 0.276 3.578 0.374 5.415 0 94.084-0.28 103.211-0.28 103.211s-90.29-3.185-101.122-100.73V532.81c-0.292-2.767-0.334-4.346-0.334-4.346s9.055-0.282 102.437-0.282C730.322 533.465 731.88 630.63 731.88 630.63H623.53z m-0.25-211.006l0.825-0.082H732.51s-4.66 98.744-108.73 101.908c-93.381 0-101.841-0.357-101.841-0.357s0.01-0.267 0.043-0.774c-0.2 0.005-0.304 0.005-0.304 0.005V411.105C535.12 312.537 623.415 310.55 623.415 310.55s0.28 9.122 0.28 103.206a169.974 169.974 0 0 1-0.414 5.867zM414.325 631.62c-2.08 0.194-4.202 0.35-6.37 0.468-93.381 0-102.435-0.282-102.435-0.282s2.102-93.858 100.993-103.438h104.795c2.827-0.299 4.445-0.337 4.445-0.337s0.28 9.122 0.28 103.206c-5.659 106.06-101.708 107.82-101.708 107.82V631.62z m-0.358-212.168V310.838s96.618 0 101.777 108.012c0 68.378-0.103 91.472-0.16 98.987 0.198 2.326 0.216 3.637 0.216 3.637H407.395c-98.896-9.58-100.599-102.06-100.599-102.06s9.054-0.286 102.436-0.286c1.602 0.087 3.18 0.194 4.734 0.323z" fill="#FDC32C" p-id="9388"></path></svg>